<?xml version="1.0" encoding="utf-8"?>
<!-- Generator: Adobe Illustrator 19.0.0, SVG Export Plug-In . SVG Version: 6.00 Build 0)  -->
<svg version="1.1" id="Layer_1" xmlns="http://www.w3.org/2000/svg" xmlns:xlink="http://www.w3.org/1999/xlink" x="0px" y="0px"
	 viewBox="0 0 200 150" style="enable-background:new 0 0 200 150;" xml:space="preserve">
<style type="text/css">
	.st0{fill:none;stroke:#000000;stroke-width:2.8346;stroke-miterlimit:10;}
	.st1{fill:#020202;}
</style>
<g id="XMLID_8_">
	<path id="XMLID_1_" class="st0" d="M60.2,135.1H13c-2.8,0-5-2.3-5-5V82.8c0-2.8,2.3-5,5-5h47.2c2.8,0,5,2.3,5,5v47.2
		C65.2,132.8,63,135.1,60.2,135.1z"/>
	<path id="XMLID_3_" class="st0" d="M123.5,135.1H76.3c-2.8,0-5-2.3-5-5V82.8c0-2.8,2.3-5,5-5h47.2c2.8,0,5,2.3,5,5v47.2
		C128.5,132.8,126.3,135.1,123.5,135.1z"/>
	<path id="XMLID_5_" class="st0" d="M187,135.1h-47.2c-2.8,0-5-2.3-5-5V82.8c0-2.8,2.3-5,5-5H187c2.8,0,5,2.3,5,5v47.2
		C192,132.8,189.8,135.1,187,135.1z"/>
	<path id="XMLID_4_" class="st0" d="M123.5,72.2H76.3c-2.8,0-5-2.3-5-5V19.9c0-2.8,2.3-5,5-5h47.2c2.8,0,5,2.3,5,5v47.2
		C128.5,69.9,126.3,72.2,123.5,72.2z"/>
	<g id="XMLID_7_">
		<polygon id="XMLID_2_" class="st1" points="99.1,26.1 102.9,32.6 106.6,39.1 99.1,39.1 91.6,39.1 95.4,32.6 		"/>
		<rect id="XMLID_6_" x="96.7" y="36.8" class="st1" width="4.8" height="24.3"/>
	</g>
	<g id="XMLID_9_">
		<polygon id="XMLID_11_" class="st1" points="99.1,125.2 95.4,118.7 91.6,112.2 99.1,112.2 106.6,112.2 102.9,118.7 		"/>
		<rect id="XMLID_10_" x="96.7" y="90.2" class="st1" width="4.8" height="24.3"/>
	</g>
	<g id="XMLID_12_">
		<polygon id="XMLID_14_" class="st1" points="180.9,106.4 174.4,110.2 167.9,114 167.9,106.4 167.9,98.9 174.4,102.7 		"/>
		<rect id="XMLID_13_" x="145.9" y="104.1" class="st1" width="24.3" height="4.8"/>
	</g>
	<g id="XMLID_15_">
		<polygon id="XMLID_17_" class="st1" points="19.1,106.4 25.6,102.7 32.1,98.9 32.1,106.4 32.1,114 25.6,110.2 		"/>
		<rect id="XMLID_16_" x="29.8" y="104.1" class="st1" width="24.3" height="4.8"/>
	</g>
</g>
</svg>
